<?xml version="1.0" encoding="UTF-8" standalone="no"?>
<svg
   xmlns="http://www.w3.org/2000/svg"
   version="1.1"
   id="svg2"
   viewBox="0 0 371.80695 121.86626">
  <defs
     id="defs4" />
  <metadata
     id="metadata7">
    <rdf:RDF>
      <cc:Work
         rdf:about="">
        <dc:format>image/svg+xml</dc:format>
        <dc:type
           rdf:resource="http://purl.org/dc/dcmitype/StillImage" />
        <dc:title></dc:title>
      </cc:Work>
    </rdf:RDF>
  </metadata>
  <g
     transform="translate(-186.13947,-485.5679)"
     id="layer1">
    <path
       id="path3347"
       d="m 449.81048,605.73707 c -1.35175,-1.49368 -1.55155,-4.57216 -1.55155,-23.90625 0,-14.98902 -0.32212,-22.19181 -0.99248,-22.19181 -0.54585,0 -2.54976,1.24525 -4.45312,2.76723 -12.04621,9.63246 -30.19186,11.13664 -45.01147,3.73119 -7.20781,-3.60179 -15.34472,-12.16232 -19.01446,-20.00437 -7.8181,-16.70687 -3.94046,-36.27021 9.69046,-48.89005 6.88871,-6.37771 12.7855,-9.2945 21.97693,-10.87066 8.44066,-1.44741 17.90981,-0.15942 25.25765,3.43555 6.55748,3.20827 14.96412,11.01343 18.88906,17.53756 5.32507,8.85145 5.81047,13.56671 5.82865,56.62024 0.0159,37.58848 -0.032,38.60678 -1.92676,41.01563 -2.31171,2.93885 -6.39588,3.29392 -8.69291,0.75574 z m -18.55712,-50.33623 c 10.26478,-5.58679 16.21014,-15.30387 16.31719,-26.66875 0.0686,-7.29069 -1.56974,-12.70303 -5.47283,-18.07896 -6.60089,-9.09176 -16.38533,-13.59363 -27.32443,-12.57212 -10.63066,0.99271 -19.06655,6.4839 -24.20047,15.75287 -2.56476,4.6305 -2.78264,5.75797 -2.78264,14.39888 0,8.63962 0.21814,9.76883 2.78091,14.3957 3.45865,6.2443 9.52826,11.67848 15.83461,14.17685 7.25978,2.8761 18.10962,2.26283 24.84766,-1.40447 z M 220.87282,568.6122 c -1.41843,-2.16482 -21.96242,-46.32835 -31.1308,-66.92209 -4.79812,-10.77738 -4.80206,-13.87963 -0.0198,-15.56147 5.2834,-1.85807 5.92474,-0.88136 20.83251,31.72625 7.70802,16.85966 14.29096,30.82474 14.62875,31.03351 0.3378,0.20877 6.81578,-13.21272 14.39553,-29.82553 7.57974,-16.61281 14.64901,-30.94339 15.70949,-31.84574 1.06047,-0.90234 2.67841,-1.64062 3.59541,-1.64062 2.63171,0 5.85938,3.16434 5.85938,5.74441 0,1.29243 -4.96589,13.07944 -11.03531,26.19336 -6.06943,13.11391 -11.60066,25.18696 -12.29164,26.829 -3.61384,8.58792 -11.87635,25.20533 -12.83613,25.81577 -2.3702,1.5075 -6.21121,0.73663 -7.7074,-1.54685 z m 88.16736,0.97744 c -9.74326,-2.3694 -20.53709,-10.52278 -26.25414,-19.8317 -7.65323,-12.46155 -7.00714,-32.72822 1.43448,-44.9977 3.90231,-5.67181 11.85596,-12.54995 17.5458,-15.17323 10.89232,-5.02186 25.96325,-4.89746 36.63394,0.30237 6.19264,3.01768 15.10957,11.1387 18.31192,16.67742 7.28307,12.59668 7.70347,27.78067 1.12789,40.73693 -9.12087,17.97141 -29.07301,27.08313 -48.79989,22.28591 z m 21.76171,-12.91273 c 3.89902,-1.45488 6.87671,-3.50885 10.58204,-7.29932 6.38113,-6.52776 8.44856,-11.84151 8.44214,-21.69822 -0.004,-6.04418 -0.43334,-7.97379 -2.85115,-12.81226 -3.24671,-6.49722 -8.55516,-11.72355 -14.85124,-14.62144 -3.34178,-1.53813 -6.15713,-1.99459 -12.30225,-1.99459 -9.76757,0 -14.79755,2.02569 -21.34073,8.59444 -6.89996,6.92689 -8.19052,10.29683 -8.19052,21.38724 0,8.63962 0.21814,9.76883 2.78091,14.3957 7.54708,13.62563 23.2225,19.46212 37.7308,14.04845 z m 172.86763,12.72849 c -11.66449,-3.13676 -22.10975,-12.06809 -27.55272,-23.55927 -2.87286,-6.06513 -3.01412,-6.89064 -3.01412,-17.61337 0,-10.68574 0.1488,-11.56409 2.96674,-17.51213 5.77097,-12.18124 16.6142,-21.02994 29.2134,-23.8398 9.62802,-2.14724 20.04278,-0.97695 28.54203,3.20723 11.32802,5.57676 20.93366,18.03785 23.17913,30.06953 0.51834,2.77741 0.94245,14.41091 0.94245,25.85221 0,20.53231 -0.0282,20.82883 -2.1698,22.84079 -2.56158,2.40648 -5.06427,2.58912 -7.9341,0.57901 -1.62154,-1.13578 -2.0836,-2.38317 -2.0836,-5.625 0,-2.29108 -0.33991,-4.16559 -0.75536,-4.16559 -0.41546,0 -2.20842,1.08802 -3.98438,2.41781 -10.74778,8.04771 -24.60862,10.77484 -37.34967,7.34858 z m 21.19727,-12.22406 c 9.15769,-3.10333 16.79363,-10.89106 19.13771,-19.51811 1.51789,-5.58638 1.27616,-14.59532 -0.53821,-20.05784 -2.11467,-6.36667 -8.58475,-13.43496 -15.32991,-16.74729 -4.59637,-2.25713 -6.46385,-2.6229 -13.31495,-2.60795 -6.51701,0.0143 -8.82272,0.4339 -12.65625,2.30365 -6.76159,3.29788 -12.92378,9.84213 -15.33443,16.28517 -6.29449,16.82354 1.81631,34.60442 18.50532,40.56825 4.73232,1.6911 14.1969,1.58163 19.53072,-0.22588 z"
       style="fill:#222222" />
  </g>
</svg>
